<?xml version="1.0" encoding="UTF-8" standalone="no"?>
<svg
   xmlns:dc="http://purl.org/dc/elements/1.1/"
   xmlns:cc="http://creativecommons.org/ns#"
   xmlns:rdf="http://www.w3.org/1999/02/22-rdf-syntax-ns#"
   xmlns:svg="http://www.w3.org/2000/svg"
   xmlns="http://www.w3.org/2000/svg"
   xmlns:sodipodi="http://sodipodi.sourceforge.net/DTD/sodipodi-0.dtd"
   xmlns:inkscape="http://www.inkscape.org/namespaces/inkscape"
   width="210mm"
   height="297mm"
   viewBox="0 0 210 297"
   version="1.1"
   id="svg8"
   inkscape:version="1.0.1 (c497b03c, 2020-09-10)"
   sodipodi:docname="treble_clef.svg">
  <defs
     id="defs2" />
  <sodipodi:namedview
     id="base"
     pagecolor="#ffffff"
     bordercolor="#666666"
     borderopacity="1.0"
     inkscape:pageopacity="0.0"
     inkscape:pageshadow="2"
     inkscape:zoom="0.28578401"
     inkscape:cx="-251.99703"
     inkscape:cy="303.64649"
     inkscape:document-units="mm"
     inkscape:current-layer="layer1"
     inkscape:document-rotation="0"
     showgrid="false"
     inkscape:window-width="1252"
     inkscape:window-height="769"
     inkscape:window-x="217"
     inkscape:window-y="25"
     inkscape:window-maximized="0" />
  <metadata
     id="metadata5">
    <rdf:RDF>
      <cc:Work
         rdf:about="">
        <dc:format>image/svg+xml</dc:format>
        <dc:type
           rdf:resource="http://purl.org/dc/dcmitype/StillImage" />
        <dc:title></dc:title>
      </cc:Work>
    </rdf:RDF>
  </metadata>
  <g
     inkscape:label="Layer 1"
     inkscape:groupmode="layer"
     id="layer1">
    <path
       id="path26"
       stroke="#000000"
       d="M 55.144093,1.0355927 C 45.632901,0.78865429 34.509339,23.50003 34.879129,43.754481 c 0.08591,6.169044 2.032985,18.680642 4.873896,34.394182 C 21.836508,96.692601 1.0317505,115.72376 1.0317505,140.69438 c -0.28568814,22.8833 13.6998385,52.03728 46.8812385,51.75688 5.092974,-0.0351 9.67594,-0.66598 13.74716,-1.75257 3.033699,16.63189 5.050903,29.75864 5.038635,35.82253 0.106904,23.90504 -31.300891,26.27102 -32.806348,12.53086 6.619454,-0.22785 11.885926,-5.48554 11.885926,-11.98757 0,-6.64225 -5.499566,-12.05768 -12.324069,-12.05768 -3.752252,0 -7.096156,1.64742 -9.363982,4.22368 -0.05233,0.0523 -0.113938,0.10531 -0.164736,0.15772 -0.511762,0.54331 -0.942884,1.19175 -1.368753,1.92784 -1.398553,2.36596 -2.306384,5.76595 -2.355454,10.62058 0,20.01432 50.605452,32.89572 50.605452,-6.57216 0.07889,-5.31027 -2.204734,-18.78753 -5.531111,-35.76994 36.108191,-13.05664 27.036892,-66.66775 -6.188324,-66.92012 -2.57628,0.0265 -5.059668,0.32596 -7.448421,0.93237 C 49.74619,114.49869 47.92001,105.65873 46.325171,97.535569 58.941918,85.143148 69.958571,69.101878 69.711461,39.537776 69.749879,18.307148 62.676643,1.2826835 55.1441,1.0355729 Z M 57.38914,21.573956 c 4.304306,-0.415384 7.721821,3.580502 7.721821,12.376651 C 65.459708,49.057756 54.875952,62.251106 42.27322,75.519808 41.067456,68.251902 40.277047,62.363268 40.191169,58.870394 40.548726,35.270291 50.214114,22.266226 57.38914,21.573956 Z M 43.861053,99.891044 c 1.537,7.912856 3.196686,16.249826 4.873895,24.646386 -21.991247,7.82347 -32.545217,38.47592 -1.368759,52.19328 -19.003114,-16.17797 -9.649645,-35.3283 4.051941,-38.66519 3.445555,17.20322 6.810488,34.17862 9.530475,48.84762 -3.692665,1.2969 -8.002232,2.05051 -13.035616,2.08555 -12.585196,0 -37.734573,-8.00924 -37.734573,-38.33745 0,-25.40175 17.608069,-35.72438 33.682637,-50.770196 z m 10.68016,37.625926 c 0.548525,-0.0332 1.142675,-0.0192 1.696483,0 22.893817,0 31.528727,36.35705 8.216051,47.97658 -2.900502,-14.58138 -6.417911,-31.30087 -9.912534,-47.97658 z"
       style="display:inline;stroke-width:1.75257" />
  </g>
</svg>
