<?xml version="1.0" encoding="UTF-8" standalone="no"?>
<svg
   xmlns:dc="http://purl.org/dc/elements/1.1/"
   xmlns:cc="http://creativecommons.org/ns#"
   xmlns:rdf="http://www.w3.org/1999/02/22-rdf-syntax-ns#"
   xmlns:svg="http://www.w3.org/2000/svg"
   xmlns="http://www.w3.org/2000/svg"
   xmlns:sodipodi="http://sodipodi.sourceforge.net/DTD/sodipodi-0.dtd"
   xmlns:inkscape="http://www.inkscape.org/namespaces/inkscape"
   version="1.0"
   width="90"
   height="90"
   id="svg835"
   sodipodi:docname="MASTER.svg"
   inkscape:version="1.0.1 (c497b03c, 2020-09-10)">
  <metadata
     id="metadata841">
    <rdf:RDF>
      <cc:Work
         rdf:about="">
        <dc:format>image/svg+xml</dc:format>
        <dc:type
           rdf:resource="http://purl.org/dc/dcmitype/StillImage" />
        <dc:title></dc:title>
      </cc:Work>
    </rdf:RDF>
  </metadata>
  <defs
     id="defs839" />
  <sodipodi:namedview
     pagecolor="#ffffff"
     bordercolor="#666666"
     borderopacity="1"
     objecttolerance="10"
     gridtolerance="10"
     guidetolerance="10"
     inkscape:pageopacity="0"
     inkscape:pageshadow="2"
     inkscape:window-width="760"
     inkscape:window-height="480"
     id="namedview837"
     showgrid="false"
     inkscape:zoom="2.5018868"
     inkscape:cx="16.447688"
     inkscape:cy="55.377353"
     inkscape:window-x="22"
     inkscape:window-y="25"
     inkscape:window-maximized="0"
     inkscape:current-layer="svg835" />
  <g
     id="g2031"
     style="display:none"
     inkscape:label="half">
    <path
       d="M 22.347479,87.24129 C 29.766895,83.26492 33.720258,76.066743 31.288385,70.651777 28.694394,64.875809 19.780734,63.245733 11.391831,67.013187 3.0029501,70.780662 -1.7001679,78.526058 0.8938221,84.302005 c 2.594012,5.775969 11.5076519,7.406046 19.8965549,3.638592 0.524299,-0.235462 1.06245,-0.434219 1.557102,-0.699307 z m -2.424598,-4.898793 c -0.527053,0.271642 -1.060704,0.476364 -1.619393,0.727272 -7.151181,3.211605 -14.0578139,3.362645 -15.4165749,0.337146 -1.358761,-3.0255 3.342345,-8.087502 10.4935309,-11.299128 7.151202,-3.211605 14.057833,-3.362644 15.416572,-0.337145 1.252621,2.789141 -2.654882,7.366476 -8.874135,10.571855 z"
       style="display:inline;opacity:0.9;fill:#000000;fill-opacity:1;fill-rule:evenodd;stroke:none;stroke-width:0.436971;stroke-miterlimit:4;stroke-dasharray:none;stroke-dashoffset:0;stroke-opacity:1"
       id="path1438" />
    <path
       d="M 30.283962,73.403755 V 0.01979609"
       style="display:inline;fill:none;fill-opacity:0.75;fill-rule:evenodd;stroke:#000000;stroke-width:3.27729;stroke-linecap:butt;stroke-linejoin:miter;stroke-miterlimit:4;stroke-dasharray:none;stroke-opacity:1"
       id="path1440" />
  </g>
</svg>
